<?xml version="1.0" encoding="utf-8"?>
<!-- Generator: Adobe Illustrator 18.1.1, SVG Export Plug-In . SVG Version: 6.00 Build 0)  -->
<svg version="1.1" id="Layer_1" xmlns="http://www.w3.org/2000/svg" xmlns:xlink="http://www.w3.org/1999/xlink" x="0px" y="0px"
	 viewBox="0 0 800 800" enable-background="new 0 0 800 800" xml:space="preserve">
<g id="cup">
	<path d="M770.1,554.5H576.4c46.3-19.8,80.4-76.6,80.4-144c64.4-5.1,115.4-58.9,115.4-124.6s-50.9-120-115.4-124.6v-24.8
		c0-0.8,0-1.7,0-2.5H134.7c0,0.8,0,1.7,0,2.5v273.7c0,67.4,34.1,124.6,80.4,144H29.9c-14.3,0-25.7,11.4-25.7,25.7v21.5
		c0,35.8,20.6,64.4,56,64.4h671.2c35.8,0,64.4-29.1,64.4-64.4v-21.5C795.8,565.9,784.4,554.5,770.1,554.5z M717.9,285.9
		c0,45.1-19.4,67.4-61.1,70.3V215.6C698.5,218.5,717.9,240.8,717.9,285.9z"/>
</g>
</svg>
