<?xml version="1.0" encoding="utf-8"?>
<!-- Generator: Adobe Illustrator 18.1.1, SVG Export Plug-In . SVG Version: 6.00 Build 0)  -->
<svg version="1.1" xmlns="http://www.w3.org/2000/svg" xmlns:xlink="http://www.w3.org/1999/xlink" x="0px" y="0px"
	 viewBox="0 0 190 128" enable-background="new 0 0 190 128" xml:space="preserve">
<g id="cup">
	<path d="M182.9,100.7h-46c11-4.7,19.1-18.2,19.1-34.2c15.3-1.2,27.4-14,27.4-29.6c0-15.6-12.1-28.5-27.4-29.6V1.4
		c0-0.2,0-0.4,0-0.6H32c0,0.2,0,0.4,0,0.6v65c0,16,8.1,29.6,19.1,34.2h-44c-3.4,0-6.1,2.7-6.1,6.1v5.1c0,8.5,4.9,15.3,13.3,15.3
		h159.4c8.5,0,15.3-6.9,15.3-15.3v-5.1C189,103.4,186.3,100.7,182.9,100.7z M170.5,36.9c0,10.7-4.6,16-14.5,16.7V20.2
		C165.9,20.9,170.5,26.2,170.5,36.9z"/>
</g>
<g id="type">
	<text transform="matrix(1 0 0 1 72.3555 77.0359)" fill="#FFFFFF" font-family="'ShreeDev0714-Bold'" font-size="72">?</text>
</g>
</svg>
